<svg viewBox="0 0 508.2 508.2" xmlns="http://www.w3.org/2000/svg" xmlns:xlink="http://www.w3.org/1999/xlink" id="Capa_1" overflow="hidden"><g><g><path d="M16.4 487.6 16.4 4.2 0 4.2 0 504 508 504 508 487.6Z" stroke="#FFFFFF" stroke-width="10.3673" fill="#FFFFFF"/></g></g><g><g><path d="M475.4 200.8C457.3 200.8 442.6 215.5 442.6 233.6 442.6 239.7 444.4 245.3 447.2 250.1L401.7 295.6C396.8 292.7 391.2 291 385.2 291 379.1 291 373.5 292.8 368.7 295.6L347.8 274.7C350.7 269.8 352.4 264.2 352.4 258.2 352.4 240.1 337.7 225.4 319.6 225.4 301.5 225.4 286.8 240.1 286.8 258.2 286.8 264.3 288.6 269.9 291.4 274.7L229.6 336.5C224.7 333.6 219.1 331.9 213.1 331.9 207 331.9 201.4 333.7 196.6 336.5L175.7 315.6C178.6 310.7 180.3 305.1 180.3 299.1 180.3 281 165.6 266.3 147.5 266.3 129.4 266.3 114.7 281 114.7 299.1 114.7 305.2 116.5 310.8 119.3 315.6L82 352.9C77.1 350 71.5 348.3 65.5 348.3 47.4 348.3 32.7 363 32.7 381.1 32.8 399.2 47.5 413.9 65.5 413.9 83.6 413.9 98.3 399.2 98.3 381.1 98.3 375 96.5 369.4 93.7 364.6L131 327.3C135.9 330.2 141.5 331.9 147.5 331.9 153.6 331.9 159.2 330.1 164 327.3L184.9 348.2C182 353.1 180.3 358.7 180.3 364.7 180.3 382.8 195 397.5 213.1 397.5 231.2 397.5 245.9 382.8 245.9 364.7 245.9 358.6 244.1 353 241.3 348.2L303.1 286.4C308 289.3 313.6 291 319.6 291 325.7 291 331.3 289.2 336.1 286.4L357 307.3C354.1 312.2 352.4 317.8 352.4 323.8 352.4 341.9 367.1 356.6 385.2 356.6 403.3 356.6 418 341.9 418 323.8 418 317.7 416.2 312.1 413.4 307.3L458.9 261.8C463.8 264.7 469.4 266.4 475.4 266.4 493.5 266.4 508.2 251.7 508.2 233.6 508.2 215.5 493.5 200.8 475.4 200.8ZM65.5 397.5C56.5 397.5 49.1 390.2 49.1 381.1 49.2 372.1 56.5 364.7 65.5 364.7 74.5 364.7 81.9 372 81.9 381.1 81.9 390.1 74.5 397.5 65.5 397.5ZM147.5 315.6C138.5 315.6 131.1 308.3 131.1 299.2 131.1 290.1 138.5 282.8 147.5 282.8 156.5 282.8 163.9 290.1 163.9 299.2 163.9 308.2 156.5 315.6 147.5 315.6ZM213 381.1C204 381.1 196.6 373.8 196.6 364.7 196.6 355.7 204 348.3 213 348.3 222.1 348.3 229.4 355.7 229.4 364.7 229.4 373.7 222 381.1 213 381.1ZM319.5 274.6C310.5 274.6 303.1 267.3 303.1 258.2 303.2 249.2 310.5 241.8 319.5 241.8 328.5 241.8 335.9 249.1 335.9 258.2 335.9 267.2 328.5 274.6 319.5 274.6ZM385.1 340.1C376.1 340.1 368.7 332.8 368.7 323.7 368.7 314.7 376.1 307.3 385.1 307.3 394.1 307.4 401.5 314.7 401.5 323.7 401.5 332.7 394.1 340.1 385.1 340.1ZM475.2 250C466.2 250 458.8 242.7 458.8 233.6 458.8 224.6 466.2 217.2 475.2 217.2 484.2 217.2 491.6 224.5 491.6 233.6 491.6 242.6 484.2 250 475.2 250Z" stroke="#FFFFFF" stroke-width="10.3673" fill="#FFFFFF"/></g></g><g></g><g></g><g></g><g></g><g></g><g></g><g></g><g></g><g></g><g></g><g></g><g></g><g></g><g></g><g></g></svg>