<svg xmlns="http://www.w3.org/2000/svg" width="40.016" height="48.997" viewBox="0 0 40.016 48.997">
  <g id="cost_breakdown_by_vendor" transform="translate(-5.502 -0.002)">
    <path id="Union_3" data-name="Union 3" d="M23786.52-471v-47.365h15.516v-.819a.815.815,0,0,1,.814-.813h7.348a.816.816,0,0,1,.82.813v.819h15.518V-471Zm1.631-1.632h36.752v-44.1h-8.168v.819h7.348v42.462h-35.117v-42.462h7.355v-.819h-8.17Zm2.453-2.452h31.848v-39.2h-5.717v2.446h-20.414v-2.446h-5.717Zm7.348-40.829v2.446h17.15v-3.265h-4.084v2.452h-8.982v-2.452h-4.084Zm5.717-1.638v1.638h5.717v-2.452h-5.717Zm-8.986,36.751a.815.815,0,0,1-.814-.813.816.816,0,0,1,.814-.819h10.619a.819.819,0,0,1,.818.819.818.818,0,0,1-.818.813Zm0-4.9a.816.816,0,0,1-.814-.819.815.815,0,0,1,.814-.813h23.686a.816.816,0,0,1,.818.813.817.817,0,0,1-.818.819Zm0-5.717a.816.816,0,0,1-.814-.819.815.815,0,0,1,.814-.813h23.686a.815.815,0,0,1,.818.813.817.817,0,0,1-.818.819Zm17.969-4.9a.815.815,0,0,1-.814-.813.816.816,0,0,1,.814-.819h5.717a.817.817,0,0,1,.818.819.815.815,0,0,1-.818.813Zm-3.846-.233a.86.86,0,0,1-.238-.58.813.813,0,0,1,.238-.58.844.844,0,0,1,1.16,0,.8.8,0,0,1,.232.58.85.85,0,0,1-.232.58.858.858,0,0,1-.58.233A.806.806,0,0,1,23808.8-496.552Zm-14.123.233a.815.815,0,0,1-.814-.813.816.816,0,0,1,.814-.819h11.438a.816.816,0,0,1,.814.819.815.815,0,0,1-.814.813Zm0-4.9a.816.816,0,0,1-.814-.819.815.815,0,0,1,.814-.813h23.686a.815.815,0,0,1,.818.813.817.817,0,0,1-.818.819Zm0-4.9a.815.815,0,0,1-.814-.813.816.816,0,0,1,.814-.819h10.619a.819.819,0,0,1,.818.819.818.818,0,0,1-.818.813Z" transform="translate(-23781.018 520)" fill="#fff"/>
  </g>
</svg>
