<svg xmlns="http://www.w3.org/2000/svg" width="54.445" height="49" viewBox="0 0 54.445 49">
  <path id="should_cost_details" d="M54.445,19.333c-.091-1.543-1.906-2.722-5.626-3.72A2.65,2.65,0,0,0,49,14.8V8.444h0C48.637,3.181,27.041,3,24.5,3S.363,3.181,0,8.444H0v.091H0V14.8c0,1.724,2.269,3.085,5.535,4.083,0,.181-.091.272-.091.454h0v.091h0v6.261C1.906,26.593.091,27.772,0,29.315H0v.091H0v6.261c0,1.18,1.089,2.178,2.813,3.085,0,.181-.091.363-.091.544h0v.091h0v6.261c0,2.994,6.806,4.9,14.337,5.807h.272c1.452.181,2.9.272,4.356.363h.181c1.815.091,3.72.181,5.354.181s3.539-.091,5.354-.181h.181c1.452-.091,2.9-.181,4.356-.363h.272c7.531-.907,14.337-2.722,14.337-5.807V39.3h0c-.091-1.089-1-2-2.9-2.813A2.65,2.65,0,0,0,49,35.667v-5.9c3.267-1,5.444-2.359,5.444-4.083V19.333Zm-7.35,16.606-.272.272a9.155,9.155,0,0,1-2.359,1.27V33.126a12.739,12.739,0,0,0,2.722-1.27v3.811A.333.333,0,0,1,47.095,35.939ZM26.769,40.2H25.407V35.667h.907c.907,0,1.815,0,2.722-.091v4.537h-.544C27.948,40.113,27.313,40.2,26.769,40.2Zm-3.9,0H21.415a7.806,7.806,0,0,1-1.452-.091V35.576c.907,0,1.815.091,2.722.091h.907V40.2h-.726ZM6.443,38.117h0L6.352,33.67a20.086,20.086,0,0,0,2.722.635v4.446c-.817-.181-1.633-.363-2.269-.544C6.624,38.207,6.533,38.117,6.443,38.117Zm19.146,7.531h.726v4.537c-1.27,0-2.45-.091-3.63-.091V45.557c.907,0,1.815.091,2.722.091Zm3.448,0c.907,0,1.815,0,2.722-.091v4.537c-1.18.091-2.359.091-3.63.091V45.648h.907Zm7.259-.454v4.537L33.574,50V45.467Zm1.815-.181c.907-.091,1.815-.272,2.722-.363V49.1c-.817.181-1.724.272-2.722.454Zm4.537-.726a20.086,20.086,0,0,0,2.722-.635v4.356a20.086,20.086,0,0,1-2.722.635Zm-30.852,0v4.446c-1-.181-1.906-.454-2.722-.635V43.743Q10.3,44.015,11.8,44.287Zm1.815.363c.907.181,1.815.272,2.722.363v4.446a21.253,21.253,0,0,1-2.722-.454Zm4.537.544c.907.091,1.815.181,2.722.181v4.537l-2.722-.272ZM15.88,39.75h-.454V35.213c.907.091,1.815.181,2.722.181v4.537A19.1,19.1,0,0,1,15.88,39.75Zm-2.269-4.719v4.446a21.254,21.254,0,0,1-2.722-.454V34.578C11.8,34.759,12.7,34.941,13.611,35.032Zm17.876,4.9h-.635V35.394c.907-.091,1.815-.091,2.722-.181V39.75c-.544.091-1.18.091-1.724.181Zm3.9-.363V35.122c.907-.091,1.815-.272,2.722-.363v4.446C37.294,39.3,36.387,39.387,35.389,39.569Zm4.537-5.263a20.086,20.086,0,0,0,2.722-.635v4.356a20.086,20.086,0,0,1-2.722.635ZM27.494,30.222a14.05,14.05,0,0,1-2-.091h-.091V25.594c.907,0,1.815.091,2.722.091h.907v4.537H27.494ZM6.352,17.246V12.891a20.086,20.086,0,0,0,2.722.635v4.446c-.091,0-.272-.091-.363-.091a5.97,5.97,0,0,1-1.361-.363C6.987,17.428,6.624,17.337,6.352,17.246ZM22.867,14.8h.726v4.537c-1.18,0-2.45,0-3.63-.091V14.706c.907,0,1.815.091,2.722.091Zm3.448,0c.907,0,1.815-.091,2.722-.091v4.537h-.454c-.635,0-1.27.091-1.815.091H25.5V14.8h.817ZM47,15.25h0l-.363.272a9.626,9.626,0,0,1-2.178,1.089V12.256a12.739,12.739,0,0,0,2.722-1.27V14.8A1.533,1.533,0,0,1,47,15.25ZM35.389,18.7V14.252c.907-.091,1.815-.272,2.722-.363v4.446C37.294,18.426,36.387,18.517,35.389,18.7Zm4.537-.817V13.435a20.086,20.086,0,0,0,2.722-.635v4.356A19.674,19.674,0,0,1,39.926,17.882Zm-6.352-3.539V18.88l-2.722.272V14.615ZM15.426,18.88V14.343c.907.091,1.815.181,2.722.181v4.537C17.241,19.061,16.333,18.97,15.426,18.88Zm-1.815-4.719v4.446a1.151,1.151,0,0,1-.544-.091.546.546,0,0,1-.363-.091c-.544-.091-1-.181-1.543-.272a.333.333,0,0,1-.272-.091V13.617A14.468,14.468,0,0,0,13.611,14.161Zm9.8,15.789h-.363a11.118,11.118,0,0,1-1.724-.181H20.87V25.232c.907.091,1.815.181,2.722.181V29.95Zm-6.08-.635c-.363-.091-.726-.091-1-.181V24.687c.907.181,1.815.272,2.722.363V29.5a12.4,12.4,0,0,1-1.724-.181Zm-2.813-4.991V28.77a19.674,19.674,0,0,1-2.722-.726V23.689A20.086,20.086,0,0,0,14.519,24.324Zm-4.537-1.18V27.5c-1.452-.544-2.359-1.089-2.631-1.633l-.091-.091V21.965A12.863,12.863,0,0,0,9.981,23.144Zm21.778,2.541c.907,0,1.815,0,2.722-.091v4.537c-1.18.091-2.45.091-3.63.091V25.685h.907Zm11.706,3.448a5.311,5.311,0,0,1-1.18.181c-.272,0-.454.091-.726.091s-.454.091-.726.091V25.05c.907-.091,1.815-.272,2.722-.363l-.091,4.446Zm-6.17.817c-.363,0-.726.091-1,.091V25.5c.907-.091,1.815-.091,2.722-.181v4.537c-.544.091-1.089.091-1.633.181C37.385,29.95,37.385,29.95,37.294,29.95ZM47.73,28.226c-.454.091-.907.272-1.452.363-.181.091-.454.091-.726.181H45.37V24.324a20.086,20.086,0,0,0,2.722-.635v4.356A.688.688,0,0,1,47.73,28.226Zm4.9-8.8c-.091.635-1.452,1.452-3.993,2.178h0A60.084,60.084,0,0,1,34.028,23.78H25.861A60.084,60.084,0,0,1,11.252,21.6h0c-2.45-.726-3.9-1.543-3.993-2.178v-.091h.181l1.089.272a53.762,53.762,0,0,0,5.9.907h0c1.452.181,2.994.272,4.537.363h0c1.089.091,2.269.091,3.357.181h3.539A70.774,70.774,0,0,0,42.83,18.97c.181-.091.363-.091.544-.181.091,0,.272-.091.363-.091a2.717,2.717,0,0,0,.907-.363c.091,0,.091,0,.181-.091a6.252,6.252,0,0,0,.726-.272.317.317,0,0,0,.181-.091c.272-.091.454-.272.726-.363.091-.091.181-.091.272-.181s.181-.091.363-.181c.091,0,.091-.091.181-.091C51.45,18.063,52.539,19.061,52.63,19.424ZM24.5,4.815c14.972,0,22.5,2.359,22.685,3.72-.091.635-1.543,1.452-3.993,2.178h0a60.084,60.084,0,0,1-14.609,2.178H20.417A60.084,60.084,0,0,1,5.807,10.713h0c-2.45-.726-3.9-1.543-3.993-2.178C2,7.174,9.528,4.815,24.5,4.815ZM1.815,14.8v-3.72a12.739,12.739,0,0,0,2.722,1.27v4.265C2.813,15.976,1.815,15.341,1.815,14.8ZM6.17,27.319h0c1.27,1.27,3.9,2.269,7.078,2.994.091,0,.181,0,.181.091.272.091.454.091.726.181a63.2,63.2,0,0,0,10.254,1.27h0c1.27.091,2.45.091,3.811.181h3.539c1.18,0,2.359-.091,3.539-.181h0a66.366,66.366,0,0,0,10.435-1.361,13.973,13.973,0,0,1-2.722,1.089h0a59.174,59.174,0,0,1-15.7,2.178H20.235A60.084,60.084,0,0,1,5.626,31.583h0c-2.541-.726-3.9-1.633-3.993-2.178C1.906,29.043,2.813,28.135,6.17,27.319ZM1.815,35.667v-3.72a12.739,12.739,0,0,0,2.722,1.27v4.265L3.993,37.3h0Q1.815,36.347,1.815,35.667Zm2.722,9.981v-3.72A12.739,12.739,0,0,0,7.259,43.2v4.265C5.535,46.828,4.537,46.193,4.537,45.648Zm42.648,1.815V43.107a12.739,12.739,0,0,0,2.722-1.27v3.811C49.907,46.193,48.909,46.828,47.185,47.463Zm2.722-8.076c-.091.635-1.452,1.452-3.993,2.178h0a60.084,60.084,0,0,1-14.609,2.178H23.139A60.084,60.084,0,0,1,8.53,41.565h0c-2.359-.726-3.811-1.543-3.993-2.178l.817.272h.091a2.136,2.136,0,0,0,.726.181c.091,0,.181.091.272.091.181,0,.272.091.454.091a68.71,68.71,0,0,0,12.069,1.724h0c1.361.091,2.813.091,4.265.181h2.722c1.361,0,2.631-.091,3.9-.181h0c1.543-.091,3.085-.272,4.537-.363h.091c1.633-.181,3.176-.454,4.537-.726.272-.091.544-.091.907-.181h.181A23.562,23.562,0,0,0,46.732,38.3c.091-.091.181-.091.272-.181s.181-.091.272-.181.181-.091.272-.181C49.363,38.57,49.817,39.115,49.907,39.387Zm0-11.887V23.144a12.739,12.739,0,0,0,2.722-1.27v3.811C52.63,26.23,51.632,26.865,49.907,27.5Z" transform="translate(0 -3)" fill="#fff"/>
</svg>
