<svg xmlns="http://www.w3.org/2000/svg" xmlns:xlink="http://www.w3.org/1999/xlink" width="66" height="66" viewBox="0 0 66 66"><defs><style>.a{fill:#fff;}.b{fill:#de1d1d;}.c{filter:url(#a);}</style><filter id="a" x="0" y="0" width="66" height="66" filterUnits="userSpaceOnUse"><feOffset dy="3" input="SourceAlpha"/><feGaussianBlur stdDeviation="3" result="b"/><feFlood flood-opacity="0.161"/><feComposite operator="in" in2="b"/><feComposite in="SourceGraphic"/></filter></defs><g transform="translate(-562 -228)"><g class="c" transform="matrix(1, 0, 0, 1, 562, 228)"><rect class="a" width="48" height="48" rx="24" transform="translate(9 6)"/></g><g transform="translate(581 244)"><path class="b" d="M19.8,27H9.2A2.99,2.99,0,0,1,6.22,24.3L4.505,7.1A1,1,0,0,1,5.5,6h18a1,1,0,0,1,1,1.1L22.78,24.3A2.991,2.991,0,0,1,19.795,27ZM6.6,8,8.21,24.1a1,1,0,0,0,1,.9H19.8a1,1,0,0,0,1-.9L22.4,8Z"/><path class="b" d="M26,8H3A1,1,0,0,1,3,6H26a1,1,0,0,1,0,2ZM14.5,23a1,1,0,0,1-1-1V11a1,1,0,0,1,2,0V22A1,1,0,0,1,14.5,23ZM11,23a1,1,0,0,1-1-.91l-1-11A1,1,0,1,1,11,10.91l1,11A1,1,0,0,1,11,23Zm7,0a1,1,0,0,1-1-1.09l1-11A1,1,0,1,1,20,11.09l-1,11A1,1,0,0,1,18,23Z"/><path class="b" d="M19,8H10A1,1,0,0,1,9,7V3a1,1,0,0,1,1-1h9a1,1,0,0,1,1,1V7A1,1,0,0,1,19,8ZM11,6h7V4H11Z"/></g></g></svg>