<svg id="input_factor_analysis" xmlns="http://www.w3.org/2000/svg" width="63.139" height="49.011" viewBox="0 0 63.139 49.011">
  <g id="Group_731" data-name="Group 731" transform="translate(17.632)">
    <g id="Group_730" data-name="Group 730">
      <path id="Path_507" data-name="Path 507" d="M235.207,0H189.7V31.76h16.8l-1.627,11.814h-5.4v1.933h26.044V43.574h-5.493L218.4,31.76h16.8V0ZM206.84,43.574l1.552-11.618h8.04l1.645,11.618Zm26.434-13.756H191.633V1.933h41.641Z" transform="translate(-189.7)" fill="#fff"/>
      <path id="Path_508" data-name="Path 508" d="M247.4,80.343a4.357,4.357,0,0,0,5.038-7.073l2.305-3.569a4.322,4.322,0,0,0,3.5-.335l4.675,4.582a4.336,4.336,0,0,0,.381,5.726,4.4,4.4,0,0,0,6.162,0,4.337,4.337,0,0,0,.372-5.735l4.731-5.075a4.4,4.4,0,0,0,4.963-1.45,4.355,4.355,0,1,0-6.609.381L268.354,72.7a4.313,4.313,0,0,0-3.932,0l-4.731-4.638a4.362,4.362,0,1,0-6.6.623l-2.379,3.69a4.357,4.357,0,0,0-3.309,7.966Zm26.741-17.037a2.4,2.4,0,0,1,3.393-.465A2.461,2.461,0,0,1,278,66.234a2.421,2.421,0,1,1-3.857-2.928Zm-9.462,11.572a2.4,2.4,0,0,1,3.42,0,2.455,2.455,0,0,1,0,3.42,2.419,2.419,0,0,1-3.42-3.42ZM254.244,64.022a2.424,2.424,0,1,1,.223,3.42,2.4,2.4,0,0,1-.223-3.42Zm-6.7,11.33a2.421,2.421,0,1,1,.846,3.318,2.4,2.4,0,0,1-.846-3.318Z" transform="translate(-240.097 -54.801)" fill="#fff"/>
    </g>
  </g>
  <g id="Group_733" data-name="Group 733" transform="translate(0 14.621)">
    <g id="XMLID_1_">
      <g id="Group_732" data-name="Group 732">
        <circle id="Ellipse_216" data-name="Ellipse 216" cx="12.5" cy="12.5" r="12.5" transform="translate(10 -0.621)" fill="#006176"/>
        <path id="Path_509" data-name="Path 509" d="M22.28,157.3a11.852,11.852,0,0,1,0,23.7,11.534,11.534,0,0,1-7.073-2.417l-2.37,2.4-.046.046a3.174,3.174,0,0,1,.056.6,2.9,2.9,0,0,1-.855,2.073l-7.045,7.12a2.851,2.851,0,0,1-4.09,0,2.94,2.94,0,0,1,0-4.145L7.9,179.552a2.833,2.833,0,0,1,2.045-.864,3.221,3.221,0,0,1,.595.056l.046-.046,2.37-2.4a11.861,11.861,0,0,1,9.323-19Zm10.615,11.851a10.606,10.606,0,1,0-10.605,10.735A10.683,10.683,0,0,0,32.894,169.151ZM12.306,179.933l2.045-2.063a9.718,9.718,0,0,1-.688-.7l-2.045,2.063a3.033,3.033,0,0,1,.372.316A2.985,2.985,0,0,1,12.306,179.933Zm-.995,2.881a1.816,1.816,0,0,0-.093-2.463,1.78,1.78,0,0,0-2.445-.1Zm-7.148,7.231,6.367-6.441-2.537-2.565L1.627,187.48a1.8,1.8,0,0,0-.53,1.283,1.839,1.839,0,0,0,.53,1.283,1.735,1.735,0,0,0,1.273.539A1.788,1.788,0,0,0,4.164,190.046Z" transform="translate(0 -157.3)" fill="#fff"/>
        <path id="Path_510" data-name="Path 510" d="M136.205,169.3A10.736,10.736,0,1,1,125.6,180.035,10.677,10.677,0,0,1,136.205,169.3Zm9.36,10.735a9.361,9.361,0,1,0-9.36,9.471A9.428,9.428,0,0,0,145.565,180.035Z" transform="translate(-113.926 -168.185)" fill="#006176"/>
        <path id="Path_511" data-name="Path 511" d="M148.36,182.9a9.472,9.472,0,1,1-9.36,9.471A9.428,9.428,0,0,1,148.36,182.9Zm8.263,9.471a8.264,8.264,0,1,0-8.263,8.356A8.325,8.325,0,0,0,156.623,192.371Z" transform="translate(-126.08 -180.521)" fill="#fff"/>
      </g>
    </g>
  </g>
</svg>
