<svg xmlns="http://www.w3.org/2000/svg" width="48.195" height="49.009" viewBox="0 0 48.195 49.009">
  <g id="cost_ex_results" transform="translate(-0.5 -0.001)">
    <path id="Union_2" data-name="Union 2" d="M23987.059-471.828l-16.715-16.721a2.847,2.847,0,0,1-.844-2.037,2.837,2.837,0,0,1,.844-2.037l23.912-24.111h19.018l3.025-3.026a.817.817,0,0,1,1.156,0,.81.81,0,0,1,0,1.151l-3.025,3.032v19.825l-23.285,23.912a2.886,2.886,0,0,1-2.049.85A2.882,2.882,0,0,1,23987.059-471.828Zm-15.559-19.644a1.243,1.243,0,0,0-.367.886,1.219,1.219,0,0,0,.367.88l16.715,16.721a1.25,1.25,0,0,0,1.768,0l22.814-23.43v-17.528l-3.949,3.948a4.055,4.055,0,0,1,.682,2.248,4.09,4.09,0,0,1-4.086,4.087,4.09,4.09,0,0,1-4.088-4.087,4.09,4.09,0,0,1,4.088-4.087,4.05,4.05,0,0,1,2.248.681l3.947-3.948h-16.7Zm31.49-16.275a2.458,2.458,0,0,0,2.453,2.453,2.455,2.455,0,0,0,2.447-2.453,2.442,2.442,0,0,0-.242-1.049l-1.627,1.627a.841.841,0,0,1-.578.241.828.828,0,0,1-.58-.241.821.821,0,0,1,0-1.157l1.629-1.627a2.447,2.447,0,0,0-1.049-.247A2.458,2.458,0,0,0,24002.99-507.747Zm-15.328,32.158a.817.817,0,0,1,0-1.157l6.932-6.932a.817.817,0,0,1,1.156,0,.817.817,0,0,1,0,1.157l-6.932,6.932a.82.82,0,0,1-.578.241A.831.831,0,0,1,23987.662-475.589Zm-1.158-2.309a.828.828,0,0,1,0-1.157l.578-.579a.82.82,0,0,1,1.158,0,.821.821,0,0,1,0,1.157l-.578.579a.822.822,0,0,1-.58.235A.834.834,0,0,1,23986.5-477.9Zm-1.73-1.736a.821.821,0,0,1,0-1.157l.578-.573a.82.82,0,0,1,1.158,0,.82.82,0,0,1,0,1.151l-.578.579a.81.81,0,0,1-.58.241A.8.8,0,0,1,23984.773-479.634Zm4.623-1.157a.813.813,0,0,1,0-1.151l3.467-3.466a.81.81,0,0,1,1.15,0,.817.817,0,0,1,0,1.157l-3.465,3.46a.8.8,0,0,1-.578.241A.8.8,0,0,1,23989.4-480.791Zm-6.354-.573a.821.821,0,0,1,0-1.157l.574-.579a.817.817,0,0,1,1.156,0,.817.817,0,0,1,0,1.157l-.578.579a.814.814,0,0,1-.578.235A.818.818,0,0,1,23983.043-481.364Zm4.619-1.157a.817.817,0,0,1,0-1.157l3.465-3.466a.82.82,0,0,1,1.158,0,.821.821,0,0,1,0,1.157l-3.467,3.466a.831.831,0,0,1-.578.241A.831.831,0,0,1,23987.662-482.521Zm-1.73-1.73a.817.817,0,0,1,0-1.157l3.465-3.466a.813.813,0,0,1,1.152,0,.81.81,0,0,1,0,1.157l-3.461,3.466a.834.834,0,0,1-.578.235A.814.814,0,0,1,23985.932-484.251Zm-5.775,0a.81.81,0,0,1,0-1.157l.578-.579a.813.813,0,0,1,1.152,0,.817.817,0,0,1,0,1.157l-.578.579a.819.819,0,0,1-.574.235A.814.814,0,0,1,23980.156-484.251Zm-1.736-1.736a.821.821,0,0,1,0-1.157l.58-.573a.81.81,0,0,1,1.15,0,.81.81,0,0,1,0,1.151l-.578.579a.817.817,0,0,1-.572.241A.828.828,0,0,1,23978.42-485.987Zm4.623-1.157a.813.813,0,0,1,0-1.151l3.467-3.466a.813.813,0,0,1,1.152,0,.813.813,0,0,1,0,1.151l-3.467,3.466a.8.8,0,0,1-.578.241A.8.8,0,0,1,23983.043-487.144Zm-6.932-1.151a.821.821,0,0,1,0-1.157l.574-.579a.817.817,0,0,1,1.156,0,.817.817,0,0,1,0,1.157l-.578.579a.814.814,0,0,1-.578.235A.819.819,0,0,1,23976.111-488.3Zm5.2-.579a.817.817,0,0,1,0-1.157l3.465-3.466a.82.82,0,0,1,1.158,0,.821.821,0,0,1,0,1.157l-3.467,3.466a.824.824,0,0,1-.578.235A.824.824,0,0,1,23981.309-488.874Zm-7.506-.579a.81.81,0,0,1,0-1.157l6.932-6.932a.813.813,0,0,1,1.152,0,.817.817,0,0,1,0,1.157l-6.932,6.932a.82.82,0,0,1-.578.241A.815.815,0,0,1,23973.8-489.453Zm5.2-1.736a.81.81,0,0,1,0-1.151l3.465-3.466a.813.813,0,0,1,1.152,0,.813.813,0,0,1,0,1.151l-3.467,3.466a.8.8,0,0,1-.578.241A.792.792,0,0,1,23979-491.189Z" transform="translate(-23969 520)" fill="#fff"/>
  </g>
</svg>
