<svg xmlns="http://www.w3.org/2000/svg" width="176" height="137.603" viewBox="0 0 176 137.603"><defs><style>.a{fill:#f0f3f7;}.b{fill:#b7bfcc;}</style></defs><g transform="translate(-90 -254.397)"><ellipse class="a" cx="88" cy="25.5" rx="88" ry="25.5" transform="translate(90 341)"/><g transform="translate(104.983 228.763)"><path class="b" d="M134.922,79.477h-6.761a6.659,6.659,0,0,0-6.356-4.886h-7.217V56.941a1.862,1.862,0,0,0-.908-1.645L62.765,25.888a1.88,1.88,0,0,0-1.89,0L9.945,55.3A1.9,1.9,0,0,0,9,56.941v58.815a1.9,1.9,0,0,0,.95,1.645L60.885,146.81a1.9,1.9,0,0,0,.95.255,2,2,0,0,0,.977-.255l26.8-15.46v11.176a8.046,8.046,0,0,0,8.113,8.066h37.193a8.091,8.091,0,0,0,8.166-8.066V87.669A8.2,8.2,0,0,0,134.922,79.477Zm-13.05-1.086a2.758,2.758,0,0,1,2.758,2.758v.184a2.758,2.758,0,0,1-2.758,2.758H110.831a2.758,2.758,0,0,1-2.758-2.758v-.184a2.758,2.758,0,0,1,2.758-2.758ZM61.835,29.728,83,41.947,35.868,69.159,14.7,56.94ZM60.029,141.873,12.8,114.66V60.228L60.029,87.442Zm1.806-57.722-22.167-12.8L86.8,44.141l22.168,12.8Zm27.78,3.518v39.293L63.829,141.873V87.442l46.958-27.214V74.591h.059a6.659,6.659,0,0,0-6.356,4.886H97.729A8.153,8.153,0,0,0,89.616,87.669Zm49.672,54.857a4.287,4.287,0,0,1-4.366,4.266H97.729a4.242,4.242,0,0,1-4.313-4.266V87.669a4.349,4.349,0,0,1,4.313-4.392h6.835a6.5,6.5,0,0,0,6.282,4.614H121.8a6.5,6.5,0,0,0,6.282-4.614h6.835a4.393,4.393,0,0,1,4.366,4.392Z" transform="translate(0 0)"/><path class="b" d="M338.886,290.757h1.989a1.9,1.9,0,1,0,0-3.8H340.8V281.8h5.241a1.829,1.829,0,0,0,1.806,1.283,1.905,1.905,0,0,0,1.91-1.9v-1.278A1.925,1.925,0,0,0,347.837,278h-8.951A1.9,1.9,0,0,0,337,279.909v8.951a1.886,1.886,0,0,0,1.886,1.9Z" transform="translate(-238.97 -183.866)"/><path class="b" d="M338.9,354.757h8.957a1.9,1.9,0,0,0,1.9-1.9V343.9a1.9,1.9,0,0,0-1.9-1.9H338.9a1.9,1.9,0,0,0-1.9,1.9v8.957a1.9,1.9,0,0,0,1.9,1.9Zm1.9-8.957h5.157v5.157H340.8Z" transform="translate(-238.97 -230.494)"/><path class="b" d="M340.875,414.957H340.8V409.8h5.138a1.91,1.91,0,1,0,3.82,0v-1.831A1.982,1.982,0,0,0,347.836,406h-8.951A1.952,1.952,0,0,0,337,407.973v8.951a1.833,1.833,0,0,0,1.886,1.834h1.989a1.9,1.9,0,1,0,0-3.8Z" transform="translate(-238.97 -277.122)"/><path class="b" d="M364.855,285.1l-5.564,5.564-1.693-1.693a1.9,1.9,0,1,0-2.687,2.687l3.036,3.036a1.9,1.9,0,0,0,2.687,0l6.909-6.908a1.9,1.9,0,0,0-2.687-2.687Z" transform="translate(-251.614 -188.63)"/><path class="b" d="M364.855,414.345l-5.564,5.564-1.693-1.693a1.9,1.9,0,1,0-2.687,2.687l3.036,3.036a1.9,1.9,0,0,0,2.687,0l6.909-6.909a1.9,1.9,0,0,0-2.687-2.687Z" transform="translate(-251.614 -282.796)"/><path class="b" d="M427.725,295H415.791a1.9,1.9,0,0,0,0,3.8h11.934a1.9,1.9,0,1,0,0-3.8Z" transform="translate(-294.99 -196.251)"/><path class="b" d="M427.725,359H415.791a1.9,1.9,0,0,0,0,3.8h11.934a1.9,1.9,0,1,0,0-3.8Z" transform="translate(-294.99 -242.88)"/><path class="b" d="M427.725,423H415.791a1.9,1.9,0,0,0,0,3.8h11.934a1.9,1.9,0,1,0,0-3.8Z" transform="translate(-294.99 -289.508)"/></g></g></svg>