<svg id="Layer_2" data-name="Layer 2" xmlns="http://www.w3.org/2000/svg" width="24" height="24" viewBox="0 0 24 24">
  <g id="printer">
    <rect id="Rectangle_536" data-name="Rectangle 536" width="24" height="24" opacity="0"/>
    <path id="Path_504" data-name="Path 504" d="M19.36,7H18V5a1.92,1.92,0,0,0-1.83-2H7.83A1.92,1.92,0,0,0,6,5V7H4.64A2.66,2.66,0,0,0,2,9.67v6.66A2.66,2.66,0,0,0,4.64,19H5.5a2,2,0,0,0,2,2h9a2,2,0,0,0,2-2h.86A2.66,2.66,0,0,0,22,16.33V9.67A2.66,2.66,0,0,0,19.36,7ZM8,5h8V7H8ZM7.5,19V15h9v4Z"/>
  </g>
</svg>
