<svg xmlns="http://www.w3.org/2000/svg" width="36" height="36" viewBox="0 0 36 36">
    <g id="Group_903" data-name="Group 903" transform="translate(-1175 -18)">
        <g id="Ellipse_210" fill="rgba(0,0,0,0)" stroke="#191f29" data-name="Ellipse 210" transform="translate(1175 18)">
            <circle cx="18" cy="18" r="18" stroke="none"/>
            <circle cx="18" cy="18" r="17.5" fill="none"/>
        </g>
        <path id="Path_346" fill="#191f29" d="M8.636 2a3.131 3.131 0 1 0 3.131 3.131A3.134 3.134 0 0 0 8.636 2zm0 5.009a1.879 1.879 0 1 1 1.879-1.879 1.881 1.881 0 0 1-1.879 1.879zm5.635 6.891v-.626a4.389 4.389 0 0 0-4.383-4.386h-2.5A4.388 4.388 0 0 0 3 13.271v.629h1.252v-.626a3.134 3.134 0 0 1 3.131-3.134h2.5a3.134 3.134 0 0 1 3.131 3.131v.629z" data-name="Path 346" transform="translate(1184 28)"/>
    </g>
</svg>
