<svg xmlns="http://www.w3.org/2000/svg" width="169.798" height="94.102" viewBox="0 0 169.798 94.102"><defs><style>.a{fill:#b8c1d3;}.b{fill:#0e9647;}</style></defs><g transform="translate(-2 -14.28)"><g transform="translate(2 14.28)"><path class="a" d="M102.59,72.5H55.016a2.426,2.426,0,0,1,0-4.851H102.59a2.426,2.426,0,0,0,2.426-2.426V21.557a2.426,2.426,0,0,0-2.426-2.426H57.569a2.426,2.426,0,0,1,0-4.851H102.59a7.277,7.277,0,0,1,7.277,7.277V65.219A7.277,7.277,0,0,1,102.59,72.5Z" transform="translate(59.93 -14.28)"/><path class="a" d="M39.044,19.131H31.986a2.426,2.426,0,0,1,0-4.851h7.059a2.426,2.426,0,0,1,0,4.851Z" transform="translate(37.292 -14.28)"/><path class="a" d="M56.851,72.5H9.277A7.277,7.277,0,0,1,2,65.219V21.557A7.277,7.277,0,0,1,9.277,14.28H54.3a2.426,2.426,0,1,1,0,4.851H9.277a2.426,2.426,0,0,0-2.426,2.426V65.219a2.426,2.426,0,0,0,2.426,2.426H56.851a2.426,2.426,0,0,1,0,4.851Z" transform="translate(-2 -14.28)"/><path class="a" d="M49.1,19.131H41.9a2.426,2.426,0,1,1,0-4.851h7.2a2.426,2.426,0,1,1,0,4.851Z" transform="translate(51.42 -14.28)"/><path class="a" d="M59.215,37.928a2.426,2.426,0,0,1-1.5-4.332L70.2,23.776a2.426,2.426,0,0,1,3,3.813l-12.49,9.819A2.426,2.426,0,0,1,59.215,37.928Z" transform="translate(76.109 -1.482)"/><path class="a" d="M71.7,37.928a2.425,2.425,0,0,1-1.5-.519L57.714,27.589a2.426,2.426,0,1,1,3-3.813L73.2,33.6a2.426,2.426,0,0,1-1.5,4.332Z" transform="translate(76.109 -1.482)"/><path class="a" d="M61.787,42.771a2.426,2.426,0,0,1-2.426-2.426V24.426a2.426,2.426,0,0,1,4.851,0V40.348A2.426,2.426,0,0,1,61.787,42.771Z" transform="translate(79.778 -3.274)"/><path class="a" d="M43.638,37.928a2.426,2.426,0,0,1-1.5-4.332l12.487-9.819a2.426,2.426,0,1,1,3,3.813L45.137,37.408a2.426,2.426,0,0,1-1.5.519Z" transform="translate(53.905 -1.482)"/><path class="a" d="M56.119,37.928a2.425,2.425,0,0,1-1.5-.519L42.145,27.589a2.426,2.426,0,1,1,3-3.813L57.63,33.6a2.426,2.426,0,0,1-1.5,4.332Z" transform="translate(53.912 -1.482)"/><path class="a" d="M46.213,42.771a2.426,2.426,0,0,1-2.426-2.426V24.426a2.426,2.426,0,1,1,4.851,0V40.348A2.426,2.426,0,0,1,46.213,42.771Z" transform="translate(57.575 -3.274)"/><path class="a" d="M28.064,37.928a2.426,2.426,0,0,1-1.5-4.332l12.487-9.819a2.426,2.426,0,1,1,3,3.813L29.563,37.408a2.426,2.426,0,0,1-1.5.519Z" transform="translate(31.702 -1.482)"/><path class="a" d="M40.552,37.928a2.425,2.425,0,0,1-1.5-.519L26.566,27.589a2.426,2.426,0,1,1,3-3.813L42.051,33.6a2.426,2.426,0,0,1-1.5,4.332Z" transform="translate(31.701 -1.482)"/><path class="a" d="M30.639,42.771a2.426,2.426,0,0,1-2.426-2.426V24.426a2.426,2.426,0,0,1,4.851,0V40.348A2.426,2.426,0,0,1,30.639,42.771Z" transform="translate(35.371 -3.274)"/><path class="a" d="M12.492,37.928a2.426,2.426,0,0,1-1.5-4.332l12.5-9.819a2.426,2.426,0,1,1,3,3.813L14,37.408a2.426,2.426,0,0,1-1.511.519Z" transform="translate(9.497 -1.482)"/><path class="a" d="M24.977,37.928a2.426,2.426,0,0,1-1.5-.519L10.99,27.59a2.426,2.426,0,1,1,3-3.813L26.478,33.6a2.426,2.426,0,0,1-1.5,4.332Z" transform="translate(9.497 -1.482)"/><path class="a" d="M15.065,42.771a2.426,2.426,0,0,1-2.426-2.426V24.426a2.426,2.426,0,0,1,4.851,0V40.348A2.426,2.426,0,0,1,15.065,42.771Z" transform="translate(13.168 -3.274)"/></g><g transform="translate(54.302 43.189)"><path class="b" d="M56.158,98.036a32.6,32.6,0,1,1,32.6-32.6A32.6,32.6,0,0,1,56.158,98.036Zm0-60.339A27.745,27.745,0,1,0,83.9,65.441,27.745,27.745,0,0,0,56.158,37.7Z" transform="translate(-23.562 -32.843)"/><path class="b" d="M40.845,65.43a2.425,2.425,0,0,1-1.715-.71L31.08,56.669a2.425,2.425,0,1,1,3.43-3.43l6.336,6.336L58.4,42.018a2.425,2.425,0,1,1,3.43,3.43L42.573,64.72A2.426,2.426,0,0,1,40.845,65.43Z" transform="translate(-13.857 -20.776)"/></g></g></svg>